{"title":"Blue Jasmine 2013 480p HDRip XviD titler","uid":9452416,"size":951859031,"categoryP":"video","categoryS":"movies","magnet":"?xt=urn:btih:c2dea8bd8eecca4bf1925c140b6c41b38c358480&amp;dn=Blue+Jasmine+2013+480p+HDRip+XviD+titler&amp;tr=udp%3A%2F%2Ftracker.openbittorrent.com%3A80&amp;tr=udp%3A%2F%2Fopen.demonii.com%3A1337&amp;tr=udp%3A%2F%2Ftracker.coppersurfer.tk%3A6969&amp;tr=udp%3A%2F%2Fexodus.desync.com%3A6969","seeders":1,"leechers":0,"uploader":"movieZ.freak","files":5,"time":1389202624,"description":"SOURCE: Blue Jasmine 2013 720p WEB-DL H264 - PublicHD\n\n\n &lt;a href=&quot;\nhttp://www.imdb.com/title/tt2334873/&quot; rel=&quot;nofollow&quot; target=&quot;_NEW&quot;&gt;\nhttp://www.imdb.com/title/tt2334873/&lt;/a&gt;\n\n\n &lt;a href=&quot;\nhttp://www.rottentomatoes.com/m/blue_jasmine/&quot; rel=&quot;nofollow&quot; target=&quot;_NEW&quot;&gt;\nhttp://www.rottentomatoes.com/m/blue_jasmine/&lt;/a&gt;\n\n\n &lt;a href=&quot;\nhttp://en.wikipedia.org/wiki/Blue_Jasmine&quot; rel=&quot;nofollow&quot; target=&quot;_NEW&quot;&gt;\nhttp://en.wikipedia.org/wiki/Blue_Jasmine&lt;/a&gt;\n\n\n\n\n- SAMPLE: Yes\n\n\n- SUBTITLE: English\n\n\n- LANGUAGE / AUDIO: English\n\n\n\n\nSCREENSHOTS:\n-------------------    &lt;a href=&quot;\nhttp://someimage.com/M3ix&quot; rel=&quot;nofollow&quot; target=&quot;_NEW&quot;&gt;\nhttp://someimage.com/M3ix&lt;/a&gt;\n\n\n\n\nDIRECTOR: Woody Allen\n\n\n\nCAST: Cate Blanchett, Alec Baldwin, Sally Hawkins, Peter Sarsgaard, Tammy Blanchard, Bobby Cannavale, Louis C.K.,...\n\n\nPLOT:\n-----------\nJasmine French used to be on the top of the heap as a New York socialite, but now is returning to her estranged sister in San Francisco utterly ruined. As Jasmine struggles with her haunting memories of a privileged past bearing dark realities she ignored, she tries to recover in her present. Unfortunately, it all proves a losing battle as Jasmine's narcissistic hangups and their consequences begin to overwhelm her. In doing so, her old pretensions and new deceits begin to foul up everyone's lives, especially her own.\n\n\nAVI INFO:\n\n************************************\n\n- Duration: 1h 38mn\n\n- Bit rate: 1118 Kbps\n\n- Res: 854 x 354\n\n- AR: 23.976 fps\n\n- FPS: 23.976 fps\n\n- Audio: AC-3, 128 Kbps, 2 channels\n\n************************************\n\n\nGeneral\n--------------\nFormat : AVI\nFormat/Info : Audio Video Interleave\nFile size : 883 MiB\nDuration : 1h 38mn\nOverall bit rate : 1255 Kbps\nWriting library : VirtualDub build 35491\n\n\nVideo\n------------\nFormat : MPEG-4 Visual\nFormat profile : Advanced Simple@L5\nFormat settings, BVOP : 2\nFormat settings, QPel : No\nFormat settings, GMC : No warppoints\nFormat settings, Matrix : Default (H.263)\nCodec ID : XVID\nCodec ID/Hint : XviD\nDuration : 1h 38mn\nBit rate : 1118 Kbps\nWidth : 854 pixels\nHeight : 354 pixels\nDisplay aspect ratio : 2.40:1\nFrame rate : 23.976 fps\nColor space : YUV\nChroma subsampling : 4:2:0\nBit depth : 8 bits\nScan type : Progressive\nCompression mode : Lossy\nBits/(Pixel*Frame) : 0.154\nStream size : 787 MiB (89%)\nWriting library : XviD 65\n\n\nAudio\n------------\nFormat : AC-3\nFormat/Info : Audio Coding 3\nMode extension : CM (complete main)\nFormat settings, Endianness : Big\nCodec ID : 2000\nDuration : 1h 38mn\nBit rate mode : Constant\nBit rate : 128 Kbps\nChannel(s) : 2 channels\nChannel positions : Front: L R\nSampling rate : 48.0 KHz\nBit depth : 16 bits\nCompression mode : Lossy\nStream size : 90.1 MiB (10%)\nAlignment : Aligned on interleaves\nInterleave, duration : 42 ms (1.00 video frame)\nInterleave, preload duration : 512 ms\n","torrent":{"xt":"urn:btih:c2dea8bd8eecca4bf1925c140b6c41b38c358480","amp;dn":"Blue+Jasmine+2013+480p+HDRip+XviD+titler","amp;tr":["udp%3A%2F%2Ftracker.openbittorrent.com%3A80","udp%3A%2F%2Fopen.demonii.com%3A1337","udp%3A%2F%2Ftracker.coppersurfer.tk%3A6969","udp%3A%2F%2Fexodus.desync.com%3A6969"],"infoHash":"c2dea8bd8eecca4bf1925c140b6c41b38c358480","infoHashBuffer":{"type":"Buffer","data":[194,222,168,189,142,236,202,75,241,146,92,20,11,108,65,179,140,53,132,128]},"announce":[],"urlList":[]}}